<svg width="41" height="76" viewBox="0 0 41 76" fill="none" xmlns="http://www.w3.org/2000/svg">
<g id="Group 30">
<path id="Ellipse 14" d="M-2.22326 13.2139C5.5983 13.1746 13.1127 15.7709 18.6669 20.4314C24.2212 25.092 27.3602 31.4352 27.3935 38.0655C27.4268 44.6958 24.3516 51.0702 18.8444 55.7863C13.3373 60.5024 5.84933 63.174 -1.97222 63.2133L-2.09774 38.2136L-2.22326 13.2139Z" fill="white" fill-opacity="0.87"/>
<path id="Vector 3" d="M12.5 30.9999L6 37.4999L9.25 40.7499L12.5 43.9999" stroke="#BBB7B7" stroke-width="4"/>
<g id="Group 31">
<path id="Ellipse 13" d="M-3.8193 0.221756C1.98259 0.192627 7.73253 1.13373 13.1022 2.99135C18.4719 4.84897 23.3562 7.58671 27.4763 11.0483C31.5963 14.5098 34.8714 18.6274 37.1145 23.1659C39.3577 27.7044 40.5249 32.575 40.5496 37.4995C40.5743 42.424 39.4561 47.306 37.2586 51.8668C35.0612 56.4276 31.8276 60.5779 27.7425 64.0806C23.6575 67.5834 18.8009 70.37 13.4501 72.2814C8.09933 74.1929 2.35912 75.1917 -3.44276 75.2208L-3.63103 37.7213L-3.8193 0.221756Z" fill="white" fill-opacity="0.7"/>
</g>
</g>
</svg>
