<svg width="44" height="76" viewBox="0 0 44 76" fill="none" xmlns="http://www.w3.org/2000/svg">
<g id="Group 31">
<path id="Ellipse 14" d="M43.5242 63.0192C35.7025 63.0243 28.1995 60.3953 22.6657 55.7105C17.1319 51.0257 14.0206 44.6688 14.0163 38.0384C14.012 31.408 17.115 25.0471 22.6427 20.3551C28.1703 15.6631 35.6699 13.0243 43.4916 13.0192L43.5079 38.0192L43.5242 63.0192Z" fill="white" fill-opacity="0.87"/>
<path id="Vector 3" d="M28.0454 44.1796L34.5738 37.7081L31.338 34.4439L28.1022 31.1797" stroke="#BBB7B7" stroke-width="4"/>
<g id="Group 31_2">
<path id="Ellipse 13" d="M44.2301 75.0288C38.4281 75.0326 32.6824 74.0663 27.3208 72.1853C21.9593 70.3042 17.087 67.5452 12.9821 64.0656C8.87723 60.5861 5.62017 56.4543 3.3969 51.906C1.17362 47.3577 0.0276643 42.4821 0.0244558 37.5576C0.0212473 32.633 1.16085 27.7559 3.3782 23.2047C5.59555 18.6536 8.84722 14.5175 12.9476 11.0326C17.0479 7.54776 21.9166 4.78236 27.2757 2.89432C32.6348 1.00627 38.3793 0.0325651 44.1812 0.0287854L44.2057 37.5288L44.2301 75.0288Z" fill="white" fill-opacity="0.7"/>
</g>
</g>
</svg>
