<svg width="9" height="9" viewBox="0 0 9 9" fill="none" xmlns="http://www.w3.org/2000/svg">
<g id="&#240;&#159;&#166;&#134; icon &#34;feedback&#34;">
<path id="Vector" d="M3.5625 8.5C3.54 8.5 3.51787 8.49608 3.49612 8.4886C3.42337 8.46258 3.375 8.39594 3.375 8.32181V6.20207H0.762375C0.534375 6.20207 0 6.20207 0 5.69244V1.22452C0 0.825018 0.342 0.5 0.762375 0.5H8.2425C8.66025 0.5 9 0.825018 9 1.22452V5.69244C9 6.20207 8.46937 6.20207 8.2425 6.20207H5.74125C5.53312 6.4608 5.001 7.03671 3.7035 8.43942C3.66675 8.47897 3.61538 8.5 3.5625 8.5ZM0.762375 0.856379C0.549 0.856379 0.375 1.02174 0.375 1.22452V5.69244C0.375 5.78475 0.375 5.84569 0.762375 5.84569H3.5625C3.666 5.84569 3.75 5.92552 3.75 6.02388V7.84925C4.5255 7.01033 5.46187 5.99572 5.5305 5.91696C5.56612 5.87242 5.62125 5.84569 5.6805 5.84569H8.2425C8.625 5.84569 8.625 5.78795 8.625 5.69244V1.22452C8.625 1.02174 8.45362 0.856379 8.2425 0.856379H0.762375Z" fill="#626262"/>
<path id="Vector_2" d="M6 2.28192H1.875C1.7715 2.28192 1.6875 2.20209 1.6875 2.10373C1.6875 2.00537 1.7715 1.92554 1.875 1.92554H6C6.1035 1.92554 6.1875 2.00537 6.1875 2.10373C6.1875 2.20209 6.1035 2.28192 6 2.28192Z" fill="#626262"/>
<path id="Vector_3" d="M4.875 3.35101H1.875C1.7715 3.35101 1.6875 3.27118 1.6875 3.17282C1.6875 3.07446 1.7715 2.99463 1.875 2.99463H4.875C4.9785 2.99463 5.0625 3.07446 5.0625 3.17282C5.0625 3.27118 4.9785 3.35101 4.875 3.35101Z" fill="#626262"/>
<path id="Vector_4" d="M6 4.42016H1.875C1.7715 4.42016 1.6875 4.34033 1.6875 4.24197C1.6875 4.14361 1.7715 4.06378 1.875 4.06378H6C6.1035 4.06378 6.1875 4.14361 6.1875 4.24197C6.1875 4.34033 6.1035 4.42016 6 4.42016Z" fill="#626262"/>
</g>
</svg>
